<svg width="32" height="32" viewBox="0 0 32 32" fill="none" xmlns="http://www.w3.org/2000/svg">
<path d="M29.0091 11.08C30.1065 10.9602 30.9008 9.9732 30.7809 8.87342C30.6611 7.776 29.6741 6.98171 28.5743 7.10156C27.4769 7.22141 26.6826 8.20839 26.8025 9.30816C26.9223 10.4056 27.9093 11.1999 29.0091 11.08Z" fill="#DC5F40"/>
<path d="M31.2794 20.6254C31.3663 16.1699 29.4934 10.7674 24.5961 13.8364C24.1849 13.9962 23.9499 13.9398 23.7337 13.6343C23.1157 12.5158 22.641 11.3713 22.0535 10.1964C17.6332 -1.17501 12.5856 5.32729 7.25353 12.0575C-4.65365 27.4497 0.955675 34.2669 19.7247 20.75C20.3803 20.2847 21.6939 19.3118 22.1663 19.2719C22.6645 19.192 22.8713 19.5962 23.2473 20.4421C23.6115 21.3093 24.2178 22.5383 24.7724 23.4148C27.9754 29.6304 31.5238 28.1899 31.2817 20.6513V20.6254H31.2794ZM17.1656 18.3084C14.8039 19.7842 12.5621 21.5913 9.96771 22.6699C8.83739 23.1422 7.19008 22.6205 6.78354 21.7064C6.32295 20.2894 7.97026 18.2003 8.77864 16.7292C9.71627 15.0537 10.9594 13.5638 12.1508 12.0458C13.307 10.5489 14.8767 8.32817 17.0528 9.2987C18.7988 10.2904 19.5155 13.0328 20.5143 14.6871C20.9655 15.4039 20.9514 15.9114 20.1618 16.3438C19.2054 16.9525 18.169 17.6457 17.1844 18.299L17.1656 18.3107V18.3084ZM29.9634 21.2435C29.9117 22.0965 29.7496 25.323 28.6615 23.7861C27.6511 21.8874 26.5419 19.521 25.5526 17.4977C25.1672 16.4637 27.5712 16.0454 28.1962 16.2216C29.9423 16.8655 30.0033 19.6197 29.9634 21.2294V21.2458V21.2435Z" fill="#DC5F40"/>
</svg>
